<?xml version="1.0" standalone="no"?>
<!DOCTYPE svg PUBLIC "-//W3C//DTD SVG 20010904//EN"
 "http://www.w3.org/TR/2001/REC-SVG-20010904/DTD/svg10.dtd">
<svg version="1.0" xmlns="http://www.w3.org/2000/svg"
 width="200.000000pt" height="200.000000pt" viewBox="0 0 200.000000 200.000000"
 preserveAspectRatio="xMidYMid meet">
<metadata>
Created by potrace 1.16, written by Peter Selinger 2001-2019
</metadata>
<g transform="translate(0.000000,200.000000) scale(0.100000,-0.100000)"
fill="#000000" stroke="none">
<path d="M885 1816 c-98 -31 -418 -181 -432 -203 -20 -30 -9 -71 23 -85 22
-10 47 -3 204 60 164 66 184 72 247 71 l68 -1 -89 -12 c-95 -13 -116 -26 -116
-76 0 -56 18 -65 139 -68 l110 -4 98 -54 c106 -59 121 -61 266 -47 l67 6 0
168 c0 151 -2 168 -17 173 -10 3 -96 23 -191 46 -186 43 -298 51 -377 26z"/>
<path d="M1530 1585 l0 -225 80 0 80 0 0 225 0 225 -80 0 -80 0 0 -225z"/>
<path d="M820 1250 c-19 -5 -48 -23 -66 -43 -41 -44 -50 -95 -27 -147 21 -47
260 -313 277 -307 6 2 68 66 139 142 139 151 156 183 138 253 -30 109 -171
142 -248 58 l-32 -35 -39 40 c-22 21 -49 39 -60 39 -11 0 -26 2 -34 4 -7 2
-29 0 -48 -4z"/>
<path d="M310 415 l0 -225 80 0 80 0 0 225 0 225 -80 0 -80 0 0 -225z"/>
<path d="M573 603 l-43 -4 0 -169 c0 -152 2 -169 18 -174 9 -3 95 -23 191 -45
202 -48 297 -53 389 -21 31 10 136 55 232 98 191 86 215 106 192 156 -21 47
-48 43 -224 -30 -148 -61 -170 -67 -243 -70 l-80 -3 89 13 c96 13 116 26 116
78 0 55 -28 68 -143 68 l-103 0 -99 55 c-98 54 -101 55 -175 53 -41 -1 -94 -3
-117 -5z"/>
</g>
</svg>
